<?xml version="1.0" encoding="UTF-8" standalone="no"?>
<!DOCTYPE svg PUBLIC "-//W3C//DTD SVG 1.1//EN" "http://www.w3.org/Graphics/SVG/1.1/DTD/svg11.dtd">
<svg width="100%" height="100%" viewBox="0 0 400 400" version="1.1" xmlns="http://www.w3.org/2000/svg" xmlns:xlink="http://www.w3.org/1999/xlink" xml:space="preserve" xmlns:serif="http://www.serif.com/" style="fill-rule:evenodd;clip-rule:evenodd;stroke-linejoin:round;stroke-miterlimit:2;">
    <g transform="matrix(0.1,0,0,-0.1,0,400)">
        <path d="M920,3977C868,3960 804,3891 787,3833C776,3793 774,3493 775,1980C776,249 776,173 794,137C804,116 828,84 847,65C915,-3 870,-1 2027,2L3067,5L3116,35C3146,54 3176,84 3195,114L3225,163L3228,1973C3229,3166 3227,3795 3220,3820C3206,3873 3172,3919 3121,3955L3078,3985L2017,3987C1256,3988 945,3985 920,3977Z" style="fill-rule:nonzero;stroke:rgb(13,13,13);stroke-width:10px;"/>
        <path d="M325,3364C318,3356 313,3339 314,3325C317,3301 316,3300 251,3300C212,3300 179,3295 172,3288C156,3272 157,3175 173,3162C180,3156 214,3150 249,3148C311,3145 313,3144 316,3116C318,3100 325,3083 332,3079C339,3075 406,3072 482,3072L620,3073L620,3377L480,3377C373,3378 336,3374 325,3364Z" style="fill:rgb(13,13,13);fill-rule:nonzero;"/>
        <path d="M3386,3371C3384,3366 3386,3094 3389,3078C3391,3068 3653,3071 3673,3082C3683,3087 3690,3102 3690,3120L3690,3150L3759,3150C3800,3150 3832,3155 3836,3161C3847,3180 3841,3283 3828,3292C3821,3296 3787,3300 3753,3300L3690,3300L3690,3330C3690,3348 3683,3363 3673,3368C3653,3378 3391,3381 3386,3371Z" style="fill:rgb(13,13,13);fill-rule:nonzero;"/>
        <path d="M373,2762C341,2760 320,2754 319,2747C318,2740 318,2725 317,2713C317,2700 312,2690 306,2689C300,2689 270,2687 240,2686C209,2685 179,2681 172,2676C165,2672 160,2646 160,2609C160,2540 162,2538 252,2536C311,2534 314,2533 315,2509C318,2462 323,2460 476,2460L620,2460L620,2610C620,2693 617,2760 613,2760C568,2763 414,2764 373,2762Z" style="fill:rgb(13,13,13);fill-rule:nonzero;"/>
        <path d="M3386,2760C3385,2757 3384,2690 3384,2610L3385,2465L3524,2462C3674,2459 3690,2464 3690,2509C3690,2536 3691,2536 3755,2537C3791,2537 3826,2542 3832,2548C3846,2562 3843,2661 3829,2675C3823,2681 3793,2686 3762,2687C3731,2687 3702,2688 3698,2689C3693,2690 3690,2700 3690,2713C3690,2759 3681,2762 3530,2763C3452,2764 3387,2763 3386,2760Z" style="fill:rgb(13,13,13);fill-rule:nonzero;"/>
        <path d="M331,2141C323,2136 316,2119 316,2103C314,2075 313,2075 245,2072C205,2070 172,2064 168,2057C156,2038 159,1945 172,1932C179,1925 212,1920 251,1920C316,1920 318,1919 315,1898C306,1850 318,1846 472,1846L615,1845L618,1998L621,2150L483,2150C407,2150 339,2146 331,2141Z" style="fill:rgb(13,13,13);fill-rule:nonzero;"/>
        <path d="M3385,2000C3385,1874 3387,1850 3400,1849C3463,1843 3658,1846 3673,1852C3683,1858 3690,1872 3690,1890L3690,1920L3753,1920C3787,1920 3821,1924 3828,1929C3837,1934 3840,1956 3838,2001L3835,2065L3763,2068C3691,2071 3690,2071 3690,2098C3690,2146 3677,2150 3525,2150L3385,2150L3385,2000Z" style="fill:rgb(13,13,13);fill-rule:nonzero;"/>
        <path d="M337,1532C320,1529 319,1526 316,1493C314,1460 302,1454 250,1457C176,1462 160,1450 160,1390C160,1313 163,1310 241,1310C279,1310 310,1307 311,1303C318,1229 316,1230 475,1230L621,1230L615,1534L484,1534C412,1535 346,1534 337,1532Z" style="fill:rgb(13,13,13);fill-rule:nonzero;"/>
        <path d="M3405,1532C3385,1529 3385,1522 3385,1380L3385,1230L3525,1230C3677,1230 3690,1234 3690,1282C3690,1309 3691,1309 3763,1312L3835,1315L3840,1368C3848,1442 3833,1461 3772,1459C3695,1457 3690,1458 3690,1483C3690,1529 3680,1532 3549,1534C3481,1534 3416,1534 3405,1532Z" style="fill:rgb(13,13,13);fill-rule:nonzero;"/>
        <path d="M323,908C319,901 316,884 315,870C315,846 312,845 246,844C200,843 175,838 169,829C156,808 158,716 172,702C179,695 212,690 250,690L317,690L317,660C317,643 319,627 323,624C326,621 394,617 474,617L620,615L620,920L476,920C371,920 329,917 323,908Z" style="fill:rgb(13,13,13);fill-rule:nonzero;"/>
        <path d="M3385,770C3385,644 3387,620 3400,619C3408,618 3473,618 3544,618C3680,618 3690,621 3690,668C3690,688 3694,690 3754,690C3794,690 3822,695 3829,703C3843,721 3846,818 3832,832C3826,838 3792,842 3756,842C3691,842 3690,842 3690,869C3690,916 3677,920 3525,920L3385,920L3385,770Z" style="fill:rgb(13,13,13);fill-rule:nonzero;"/>
    </g>
    <g transform="matrix(8.68551,0,0,7.97014,-355.774,-301.521)">
        <path d="M64,46L76,62L69,62L69,80L59,80L59,62L52,62L64,46Z" style="fill:rgb(242,242,242);fill-rule:nonzero;"/>
    </g>
</svg>
